<svg width="20" height="20" viewBox="0 0 20 20" fill="none" xmlns="http://www.w3.org/2000/svg">
<g id="verification-check 1">
<path id="Vector" d="M15.8578 3.25601C13.1938 5.79001 10.5598 8.294 7.91178 10.812C7.73578 10.978 7.45978 10.972 7.29178 10.796L4.50178 7.85801C4.33578 7.682 4.05178 7.67 3.86978 7.828C3.04578 8.54801 2.22978 9.26201 1.39578 9.99201C1.21378 10.152 1.19778 10.426 1.35978 10.604C3.21778 12.648 5.05978 14.674 6.91378 16.712C7.07578 16.89 7.35178 16.902 7.52978 16.738C11.2358 13.29 14.9158 9.86401 18.6058 6.43201C18.7838 6.26801 18.7978 5.98601 18.6398 5.80201C17.9058 4.95401 17.1858 4.12201 16.4618 3.28601C16.3038 3.10401 16.0338 3.09001 15.8578 3.25601Z" fill="#FBFF22"/>
</g>
</svg>
