<svg width="16" height="16" viewBox="0 0 16 16" fill="none" xmlns="http://www.w3.org/2000/svg">
<g id="rounded-double-right 1">
<path id="Vector" d="M12.6145 7.55195L9.36331 4.30075C9.11531 4.05275 8.71371 4.05275 8.46571 4.30075L8.18571 4.58075C7.93771 4.82875 7.93771 5.23035 8.18571 5.47835L10.2609 7.55355C10.3857 7.67835 10.4465 7.83995 10.4465 8.00155C10.4465 8.16315 10.3841 8.32635 10.2609 8.44955L8.18571 10.5247C7.93771 10.7727 7.93771 11.1743 8.18571 11.4223L8.46571 11.7023C8.71371 11.9471 9.11531 11.9471 9.36331 11.6991L12.6145 8.44795C12.7393 8.32315 12.8001 8.16155 12.8001 7.99995C12.8001 7.83835 12.7377 7.67515 12.6145 7.55195ZM7.81451 7.55195L4.56331 4.30075C4.31531 4.05275 3.91371 4.05275 3.66571 4.30075L3.38571 4.58075C3.13771 4.82875 3.13771 5.23035 3.38571 5.47835L5.46091 7.55355C5.58571 7.67835 5.64651 7.83995 5.64651 8.00155C5.64651 8.16315 5.58411 8.32635 5.46091 8.44955L3.38571 10.5247C3.13771 10.7727 3.13771 11.1743 3.38571 11.4223L3.66571 11.7023C3.91371 11.9471 4.31531 11.9471 4.56331 11.6991L7.81451 8.44795C7.93931 8.32315 8.00011 8.16155 8.00011 7.99995C8.00011 7.83835 7.93771 7.67515 7.81451 7.55195Z" fill="black"/>
</g>
</svg>
