<svg width="20" height="20" viewBox="0 0 20 20" fill="none" xmlns="http://www.w3.org/2000/svg">
<g id="rounded-double-right 1">
<path id="Vector" d="M15.768 9.44006L11.704 5.37605C11.394 5.06605 10.892 5.06605 10.582 5.37605L10.232 5.72605C9.92201 6.03605 9.92201 6.53805 10.232 6.84805L12.826 9.44206C12.982 9.59806 13.058 9.80006 13.058 10.0021C13.058 10.2041 12.98 10.4081 12.826 10.5621L10.232 13.1561C9.92201 13.4661 9.92201 13.9681 10.232 14.2781L10.582 14.6281C10.892 14.9341 11.394 14.9341 11.704 14.6241L15.768 10.5601C15.924 10.4041 16 10.2021 16 10.0001C16 9.79806 15.922 9.59406 15.768 9.44006ZM9.76801 9.44006L5.70401 5.37605C5.39401 5.06605 4.89201 5.06605 4.58201 5.37605L4.23201 5.72605C3.92201 6.03605 3.92201 6.53805 4.23201 6.84805L6.82601 9.44206C6.98201 9.59806 7.05801 9.80006 7.05801 10.0021C7.05801 10.2041 6.98001 10.4081 6.82601 10.5621L4.23201 13.1561C3.92201 13.4661 3.92201 13.9681 4.23201 14.2781L4.58201 14.6281C4.89201 14.9341 5.39401 14.9341 5.70401 14.6241L9.76801 10.5601C9.92401 10.4041 10 10.2021 10 10.0001C10 9.79806 9.92201 9.59406 9.76801 9.44006Z" fill="white"/>
</g>
</svg>
